<svg width="36" height="36" viewBox="0 0 36 36" fill="none" xmlns="http://www.w3.org/2000/svg">
<path d="M30.7286 5.27143C27.4715 2.01429 22.9715 0 18.0001 0C13.0286 0 8.52863 2.01429 5.27149 5.27143C2.01435 8.52857 6.10352e-05 13.0286 6.10352e-05 18C6.10352e-05 22.9714 2.01435 27.4714 5.27149 30.7286C8.52863 33.9857 13.0286 36 18.0001 36C22.9715 36 27.4715 33.9857 30.7286 30.7286C33.9858 27.4714 36.0001 22.9714 36.0001 18C36.0001 13.0286 33.9858 8.52857 30.7286 5.27143ZM20.7429 23C17.8715 25.8714 21.8429 23.7 17.4715 23.7C13.1001 23.7 15.8715 29.3714 13.0001 26.5C10.1715 23.6286 12.0001 22.8857 12.0001 18.5143C12.0001 14.1429 9.62863 13.4572 12.5001 10.5857C15.3715 7.7143 8.12863 9 12.5001 9C16.8715 9 1.93327 8.27144 20.7858 12.2572C28.5001 22.5 27.0001 13.6286 27.0001 18C27.0001 22.3714 23.5715 20.1286 20.7429 23Z" fill="#18191F"/>
<path d="M27.9858 16.7143C27.9 16.6286 27.7715 16.4571 27.6429 16.2857C27.6 16.2429 27.6 16.2429 27.5572 16.2C27.4286 16.0714 27.3 15.9857 27.1286 15.9L20.7858 12.2572C20.7858 12.2572 20.7429 12.2572 20.7429 12.2143L14.3572 8.52858C13.8 8.18573 13.1572 8.14287 12.5572 8.27144C11.9572 8.44287 11.4429 8.82858 11.1 9.38573C10.9715 9.55716 10.9286 9.77144 10.8429 9.94287C10.8 10.0714 10.8 10.2429 10.7572 10.4143C10.7572 10.4572 10.7572 10.5429 10.7572 10.5857V25.3714C10.7572 26.0143 11.0143 26.6143 11.4429 27.0429C11.8715 27.4714 12.4715 27.7286 13.1143 27.7286C13.3286 27.7286 13.5858 27.6857 13.8 27.6C14.0143 27.5143 14.2286 27.4286 14.4 27.3L20.7 23.6571L20.7858 23.6143L27.1286 19.9714C27.1715 19.9714 27.1715 19.9286 27.2143 19.9286C27.7286 19.5857 28.1143 19.0714 28.2429 18.5143C28.4143 17.9143 28.3286 17.2714 27.9858 16.7143ZM26.1429 18.0429C26.1429 18.0857 26.1 18.1286 26.0572 18.1286H26.0143L19.7143 21.8143L19.6715 21.8571L13.3715 25.5C13.3286 25.5 13.3286 25.5429 13.2858 25.5429C13.2858 25.5429 13.2429 25.5429 13.2429 25.5857H13.2C13.1572 25.5857 13.1143 25.5429 13.0715 25.5429C13.0286 25.5 13.0286 25.4571 13.0286 25.4143V10.5429C13.0715 10.5 13.1143 10.4572 13.1572 10.4572C13.2 10.4572 13.2429 10.4572 13.2858 10.4572L19.6286 14.1L19.6715 14.1429L26.0572 17.8286L26.1429 17.9143C26.1429 17.9571 26.1429 18 26.1429 18.0429Z" fill="#18191F"/>
</svg>
