<svg width="140" height="140" viewBox="0 0 140 140" fill="none" xmlns="http://www.w3.org/2000/svg">
<g clip-path="url(#clip0)">
<rect x="1" y="1" width="138" height="138" rx="69" fill="#FE9D81"/>
<path fill-rule="evenodd" clip-rule="evenodd" d="M18.3466 182.764C23.4284 182.779 28.3663 182.948 33.4624 182.965C54.1779 183.032 75.084 182.934 95.8747 182.119C101.751 181.888 103.218 181.894 109.069 181.536C112.523 181.524 122.9 181.246 122.381 176.676C122.151 168.162 119.981 159.685 119.298 151.195C117.987 135.235 116.87 118.775 110.283 103.847C108.759 100.282 105.485 97.9502 102.244 95.8538C98.9934 93.5922 98.1957 91.0812 95.1959 88.5263C94.5616 87.986 90.9595 87.7662 89.0215 86.3959C86.2007 84.4014 84.8018 81.1359 83.7494 80.5801C82.9749 80.1711 82.9891 77.3493 81.4369 76.3505C79.354 75.0102 72.7164 74.0137 70.3015 73.8273C67.9837 73.6484 63.9522 74.0242 61.7775 74.8487C58.1509 76.2236 56.7044 78.8463 55.1073 82.2252C34.0068 88.5602 14.7205 99.2874 8.7309 120.925C3.56569 139.072 3.37639 158.527 5.3718 177.139C5.77098 178.5 5.4912 180.634 6.70198 181.536C2.49427 181.77 17.7758 182.613 18.3466 182.764Z" fill="white"/>
<path fill-rule="evenodd" clip-rule="evenodd" d="M114.32 164.845C113.92 164.652 113.504 164.43 113.048 164.415C112.265 164.388 112.264 163.205 113.048 163.231C113.732 163.254 114.333 163.531 114.935 163.823C115.637 164.164 115.019 165.184 114.32 164.845ZM113.048 131.531C113.583 131.531 114.121 131.597 114.532 131.96C114.776 132.176 114.756 132.578 114.532 132.797C114.291 133.03 113.913 133.012 113.67 132.797C113.749 132.867 113.671 132.797 113.642 132.782C113.635 132.778 113.631 132.776 113.629 132.774C113.623 132.773 113.617 132.771 113.607 132.769C113.544 132.753 113.481 132.738 113.416 132.727C113.415 132.73 113.28 132.718 113.249 132.717C113.182 132.715 113.115 132.714 113.048 132.714C112.718 132.714 112.439 132.444 112.439 132.122C112.439 131.803 112.719 131.531 113.048 131.531ZM107.319 144.807C107.145 145.55 105.971 145.234 106.145 144.492C106.398 143.414 106.352 142.309 106.145 141.228C106.002 140.482 107.176 140.165 107.319 140.913C107.568 142.211 107.623 143.513 107.319 144.807ZM105.781 102.271C104.873 102.062 103.976 102.037 103.048 102.036C102.263 102.036 102.264 100.853 103.048 100.853C104.083 100.853 105.093 100.896 106.105 101.13C106.868 101.306 106.543 102.447 105.781 102.271ZM102.74 131.1C102.214 130.844 101.687 130.588 101.161 130.333C100.459 129.992 101.077 128.971 101.776 129.311L103.355 130.078C104.057 130.419 103.439 131.439 102.74 131.1ZM102.521 154.407C101.854 155.342 100.915 155.923 99.7887 156.213C99.0288 156.409 98.7074 155.267 99.4648 155.072C100.27 154.864 100.986 154.487 101.469 153.81C101.913 153.187 102.969 153.78 102.521 154.407ZM98.311 112.736C98.1304 112.408 97.8586 112.27 97.5211 112.262C96.737 112.245 96.7369 111.061 97.5211 111.079C98.2902 111.096 98.9955 111.471 99.363 112.139C99.7329 112.811 98.6807 113.408 98.311 112.736ZM90.5834 120.781C90.365 121.012 89.9414 121.006 89.7218 120.781C89.5873 120.643 89.4743 120.489 89.3854 120.32C89.3516 120.256 89.3198 120.191 89.2826 120.129C89.266 120.101 89.2476 120.074 89.2287 120.047C89.2223 120.042 89.209 120.028 89.1953 120.014C88.9612 119.774 88.9672 119.419 89.1953 119.177C89.4139 118.946 89.8374 118.952 90.057 119.177C90.1914 119.315 90.3045 119.469 90.3933 119.638C90.4271 119.702 90.4589 119.767 90.4963 119.83C90.5129 119.857 90.5313 119.885 90.5502 119.911C90.5566 119.917 90.5697 119.93 90.5834 119.944C90.8176 120.185 90.8117 120.54 90.5834 120.781ZM89.9334 138.258C89.1399 138.61 88.2697 138.61 87.4762 138.258C87.1757 138.124 87.1044 137.703 87.2578 137.448C87.4354 137.153 87.7922 137.103 88.0912 137.236C88.451 137.396 88.9591 137.396 89.3185 137.236C89.6189 137.102 89.9722 137.15 90.1519 137.448C90.3062 137.704 90.2326 138.125 89.9334 138.258ZM87.7689 150.628C87.6326 150.942 87.3382 151.108 86.994 151.121C86.653 151.134 86.3991 150.84 86.3848 150.529C86.3756 150.329 86.4873 150.157 86.6476 150.051C86.6478 150.04 86.6481 150.029 86.6481 150.018C86.6483 149.686 86.9271 149.44 87.2573 149.426C87.5861 149.412 87.8666 149.708 87.8665 150.018C87.8663 150.227 87.8531 150.434 87.7689 150.628ZM84.6255 170.295C83.6532 170.31 82.7032 170.535 81.7308 170.55C80.945 170.563 80.9475 169.379 81.7308 169.367C82.703 169.351 83.6531 169.126 84.6255 169.111C85.4112 169.099 85.4088 170.282 84.6255 170.295ZM80.5826 94.4493C80.0135 94.976 79.3105 95.2355 78.6172 95.5645C77.9148 95.8978 77.2978 94.8768 78.0022 94.5425C78.5895 94.2638 79.2396 94.0578 79.7212 93.6125C80.2893 93.0869 81.1518 93.9229 80.5826 94.4493ZM79.0548 108.091C78.6555 107.898 78.2392 107.676 77.7834 107.661C77.0001 107.634 76.9991 106.451 77.7834 106.477C78.4672 106.5 79.0679 106.777 79.6698 107.069C80.3723 107.41 79.7545 108.43 79.0548 108.091ZM71.7306 162.843C71.5503 162.515 71.2784 162.377 70.9409 162.37C70.1568 162.352 70.1565 161.169 70.9409 161.186C71.7101 161.203 72.4153 161.578 72.7828 162.246C73.1526 162.918 72.1005 163.515 71.7306 162.843ZM69.194 137.143C68.9515 136.926 68.9684 136.525 69.194 136.306C69.4572 136.05 69.7203 135.795 69.9837 135.539C70.2243 135.305 70.6018 135.322 70.8451 135.539C71.0875 135.755 71.0706 136.157 70.8451 136.376C70.5817 136.631 70.3187 136.887 70.0555 137.143C69.8146 137.377 69.4372 137.359 69.194 137.143ZM66.2035 177.197C65.3246 177.177 64.5006 176.932 63.673 176.665C62.9315 176.425 63.2513 175.282 63.997 175.524C64.7163 175.756 65.4388 175.996 66.2035 176.014C66.9877 176.031 66.988 177.215 66.2035 177.197ZM62.2559 151.888C61.4618 151.866 60.8031 151.474 60.2462 150.948C59.6828 150.416 60.5453 149.579 61.1077 150.111C61.4265 150.412 61.7943 150.692 62.2559 150.704C63.0398 150.726 63.0404 151.909 62.2559 151.888ZM64.7074 119.34C64.717 119.655 64.8541 119.993 65.0554 120.2C65.5938 120.754 64.7333 121.592 64.1939 121.037C63.7489 120.579 63.5078 119.966 63.489 119.34C63.4665 118.577 64.685 118.58 64.7074 119.34ZM55.4142 93.5626C55.1593 93.0777 54.8252 92.509 54.3169 92.241C53.6267 91.8772 54.2425 90.8557 54.9319 91.219C55.6227 91.5833 56.1171 92.3011 56.4663 92.9652C56.8227 93.643 55.7709 94.2411 55.4142 93.5626ZM53.8349 105.871C53.5522 105.863 53.2717 105.816 52.999 105.745C52.8825 105.714 52.7674 105.678 52.6507 105.648C52.6008 105.634 52.3886 105.609 52.519 105.616C52.1891 105.598 51.9098 105.358 51.9098 105.024C51.9098 104.716 52.19 104.415 52.519 104.432C52.9712 104.456 53.3824 104.675 53.8349 104.688C54.6184 104.709 54.619 105.893 53.8349 105.871ZM49.887 124.789H48.5712C47.7859 124.789 47.7873 123.606 48.5712 123.606H49.887C50.6723 123.606 50.6709 124.789 49.887 124.789ZM48.352 177.116C47.953 177.31 47.4827 177.494 47.1595 177.791C46.5896 178.314 45.727 177.478 46.298 176.954C46.7096 176.576 47.236 176.338 47.7372 176.094C48.0325 175.951 48.3956 176.016 48.5707 176.307C48.729 176.57 48.6463 176.973 48.352 177.116ZM45.4124 162.162C45.3613 162.148 45.3074 162.139 45.2558 162.132C45.0487 162.105 44.832 162.114 44.6239 162.114C43.8387 162.114 43.8399 160.93 44.6239 160.93C45.2418 160.931 45.8848 160.939 46.3706 161.359C46.6172 161.573 46.5933 161.98 46.3706 162.196C46.1285 162.431 45.7546 162.409 45.5091 162.196C45.535 162.219 45.4462 162.171 45.4124 162.162ZM44.6238 142.05C44.8008 141.695 44.8035 141.464 44.8038 141.07C44.8044 140.307 46.0228 140.309 46.0222 141.07C46.0219 141.642 45.9343 142.129 45.6759 142.647C45.5316 142.936 45.1095 143.011 44.8425 142.86C44.5431 142.69 44.4805 142.337 44.6238 142.05ZM41.101 114.286C40.3944 114.52 39.7635 114.85 39.1412 115.249C38.4844 115.67 37.8747 114.645 38.5263 114.227C39.2364 113.772 39.971 113.412 40.7771 113.145C41.5224 112.899 41.8394 114.043 41.101 114.286ZM36.9917 94.367C36.4667 94.3812 35.9248 94.5768 35.4569 94.7976C34.7538 95.1292 34.1368 94.1083 34.8421 93.7755C35.5104 93.4601 36.2416 93.2039 36.9917 93.1835C37.7774 93.162 37.774 94.3457 36.9917 94.367ZM35.1494 147.542C34.9428 147.551 34.7663 147.442 34.657 147.287C34.6456 147.287 34.6343 147.286 34.623 147.286C34.2816 147.286 34.0287 147.015 34.0138 146.694C33.999 146.375 34.3044 146.103 34.623 146.103C34.8381 146.103 35.0514 146.116 35.2512 146.198C35.574 146.33 35.7455 146.616 35.7586 146.95C35.7715 147.282 35.469 147.528 35.1494 147.542ZM32.1535 106.617C31.4053 106.854 31.0876 105.711 31.8296 105.476C32.7006 105.199 33.5906 104.985 34.4614 104.709C35.2097 104.471 35.5274 105.615 34.7852 105.85C33.9145 106.126 33.0243 106.341 32.1535 106.617ZM29.4211 128.956C29.189 129.683 28.0134 129.371 28.2461 128.642C28.4709 127.938 28.4871 127.229 28.4875 126.498C28.488 125.735 29.7064 125.737 29.7059 126.498C29.7055 127.33 29.6767 128.155 29.4211 128.956ZM21.2749 155.713C21.2306 156.008 20.99 156.22 20.675 156.234C20.3545 156.248 20.0543 155.952 20.0658 155.642C20.0882 155.046 20.5882 154.561 21.2014 154.539C21.5425 154.527 21.7963 154.82 21.8106 155.131C21.8246 155.433 21.5648 155.669 21.2749 155.713ZM17.1524 121.7C16.5087 121.909 15.8207 122.108 15.316 122.571C14.7457 123.094 13.883 122.258 14.4545 121.734C15.12 121.124 15.9761 120.835 16.8286 120.559C17.5752 120.317 17.8924 121.46 17.1524 121.7ZM14.3587 144.692C14.1817 144.986 13.8233 145.039 13.5253 144.905C13.1257 144.724 12.6844 144.73 12.2536 144.73C11.4685 144.729 11.4697 143.546 12.2536 143.546C12.9182 143.547 13.5314 143.608 14.1403 143.883C14.4398 144.018 14.5128 144.436 14.3587 144.692ZM12.7801 172.595C12.4389 172.608 12.1852 172.315 12.1709 172.004C12.1569 171.701 12.4166 171.465 12.7067 171.421C12.7508 171.127 12.9916 170.914 13.3064 170.901C13.6272 170.887 13.9274 171.183 13.9156 171.492C13.8932 172.088 13.3935 172.574 12.7801 172.595ZM123.779 177.071C123.572 176.347 123.098 175.763 122.74 175.112C122.62 174.892 122.579 174.756 122.514 174.595C122.425 174.767 122.254 174.896 121.996 174.896C121.501 174.897 120.923 174.866 120.461 175.071C120.161 175.205 119.807 175.157 119.628 174.859C119.474 174.603 119.547 174.182 119.846 174.049C120.527 173.746 121.258 173.713 121.996 173.713C122.178 173.713 122.316 173.778 122.414 173.876C122.696 170.124 122.689 166.369 122.422 162.615C122.137 158.603 121.482 154.67 120.797 150.71C120.465 148.789 120.034 146.85 120.118 144.894C120.202 142.951 121.059 141.141 120.451 139.192C120.208 138.411 119.79 137.695 119.519 136.923C119.228 136.091 119.254 135.27 119.387 134.409C119.659 132.656 120.112 130.924 119.388 129.212C119.069 128.453 118.551 127.775 118.301 126.991C117.99 126.016 118.033 124.938 117.981 123.927C117.876 121.889 117.849 119.837 117.675 117.802C117.597 116.891 117.428 116.027 117.043 115.191C116.673 114.386 116.123 113.654 115.878 112.8C115.634 111.96 115.613 111.074 115.482 110.214C115.345 109.306 115.13 108.411 114.841 107.538C113.723 104.159 111.674 101.123 109.254 98.491C106.682 95.6933 103.607 93.5866 100.343 91.6234C98.6272 90.591 96.9111 89.5586 95.1961 88.5263C95.1595 88.7199 95.0324 88.8979 94.7882 88.9772C94.1441 89.1861 93.4565 89.3847 92.9517 89.8476C92.3814 90.3704 91.5187 89.5347 92.0901 89.0108C92.6862 88.464 93.4353 88.1762 94.1978 87.9234C93.4163 87.4449 92.6265 86.9495 91.7447 86.6731C90.9724 86.4305 89.8333 86.642 89.2072 86.0917C88.7155 85.6582 88.56 84.8549 88.3713 84.266C88.1352 83.5352 87.9311 82.7644 87.6311 82.0543C87.427 81.569 87.13 81.103 86.7554 80.7272C86.5909 80.1117 86.2892 79.5495 85.7561 79.2078C84.3612 78.3112 82.6479 79.2019 82.0341 80.4801C81.527 80.4786 80.9924 80.5866 80.499 80.6162C79.4846 80.6784 78.4688 80.7065 77.453 80.7035C75.4655 80.6976 73.4765 80.5718 71.5057 80.3159C67.9815 79.8573 64.5624 78.9326 61.0976 78.2121C61.0778 78.1677 61.055 78.1234 61.0276 78.079C60.2813 76.8629 58.4218 77.0685 57.2504 77.5286C56.748 77.7254 56.2363 77.9739 55.9484 78.4355C55.6438 78.6352 55.3803 78.8779 55.2052 79.1338C54.8427 79.662 54.5625 80.7272 53.8269 80.816C53.3426 80.8737 52.8507 80.7834 52.3587 80.8515C51.7435 80.9343 51.1921 81.1444 50.6241 81.3841C46.2988 83.2082 41.8273 85.2366 37.1333 85.9437C36.0323 86.1094 34.9114 86.2811 33.955 86.8802C33.1783 87.367 32.5781 88.0357 31.937 88.6704C31.3126 89.2888 30.7978 89.5625 29.9069 89.6734C28.8256 89.8081 27.8889 90.098 27.0985 90.8614C26.4421 91.4961 26.0141 92.3069 25.4994 93.0436C24.9753 93.7952 24.2064 94.2183 23.4083 94.6548C21.5213 95.6874 19.7638 96.9346 18.2332 98.4303C15.009 101.585 13.0566 105.638 11.0889 109.588C8.96126 113.861 6.97224 118.185 5.59242 122.748C4.24001 127.228 3.43587 131.836 3.06426 136.488C2.67285 141.368 2.61803 146.268 2.29211 151.152C2.12915 153.592 2.00579 156.034 1.8809 158.475C1.75906 160.887 1.58087 163.303 1.60966 165.717C1.66464 170.385 2.62549 175.067 4.30549 179.438C4.72432 180.525 5.18867 181.598 5.68364 182.654C6.11785 183.582 7.60276 183.478 8.06879 182.654C8.1754 182.465 8.25917 182.269 8.32922 182.071C9.54761 182.082 10.7782 181.99 11.989 182.099C14.1272 182.293 16.2699 182.401 18.4143 182.53C22.6575 182.786 26.9081 182.956 31.1527 183.191C31.5645 183.214 31.9763 183.237 32.388 183.261C29.3632 174.166 29.7555 164.334 29.2768 154.875C29.2383 154.113 30.457 154.117 30.4952 154.875C30.9759 164.374 30.5666 174.232 33.6984 183.341C34.9134 183.421 36.1268 183.519 37.336 183.662C38.3136 183.776 39.2961 183.91 40.283 183.863C41.4024 183.811 42.4959 183.562 43.5879 183.346C45.5723 182.954 47.4837 183.132 49.4757 183.373C51.6064 183.632 53.7447 183.775 55.889 183.866C64.4756 184.231 73.1201 184.564 81.7036 184.006C83.781 183.872 85.8538 183.682 87.9174 183.425C90.0435 183.16 92.1467 182.715 94.2712 182.462C96.3653 182.213 98.2905 182.895 100.36 183.021C102.471 183.15 104.638 182.722 106.729 182.477C107.411 182.396 108.094 182.318 108.777 182.241C107.898 176.386 107.398 170.487 106.912 164.59C106.85 163.829 108.069 163.836 108.131 164.59C108.613 170.441 109.101 176.296 109.979 182.104C113.6 181.695 117.225 181.281 120.808 180.643C121.828 180.463 122.843 180.169 123.453 179.284C123.905 178.628 123.997 177.825 123.779 177.071Z" fill="black"/>
<path fill-rule="evenodd" clip-rule="evenodd" d="M96.4169 52.9059C96.089 50.1075 96.5133 44.2583 96.5417 43.9029C96.7215 41.6564 95.6379 32.7852 93.5895 33.6026C90.1533 30.9601 85.5766 30.3766 81.297 30.0979C72.4077 29.5188 62.9511 30.8481 56.087 36.6594C52.6924 39.6773 49.3877 44.0667 49.6533 48.637C46.5691 52.9692 42.2211 58.9117 46.0639 63.9763C47.3701 65.5944 49.4461 66.197 51.087 67.4224C54.3876 70.0085 56.4583 73.7198 59.7902 76.2905C68.6175 83.9959 83.6062 85.6056 92.279 76.8413C98.9855 70.4939 97.9011 60.9979 96.7215 52.9059C95.9284 47.4655 97.0565 58.3652 96.4169 52.9059Z" fill="white"/>
<path fill-rule="evenodd" clip-rule="evenodd" d="M69.4218 18.2308C71.7992 17.7647 74.2404 17.4748 76.6682 17.562L76.8554 17.5691C78.6821 17.64 80.9954 17.7969 82.589 18.8288C82.6807 18.7394 82.8281 18.6935 82.9618 18.7555C84.8555 19.6336 86.9383 20.2684 88.9322 20.8992C90.917 21.527 92.976 21.9414 95.0563 22.1084C95.8389 22.1713 96.5087 22.9922 96.0132 23.7285C95.8953 23.904 95.7805 24.0812 95.6661 24.2589C95.8574 24.2396 96.0487 24.2196 96.2399 24.2008C96.8694 24.1392 97.4982 24.7918 97.4609 25.3872C97.4376 25.7616 97.396 26.1316 97.3345 26.4972C97.5742 26.4923 97.8126 26.5272 98.0429 26.6218C99.2089 27.1001 99.1277 28.4492 99.0404 29.4756C98.9195 30.9 98.3711 32.4088 97.3528 33.4749C98.1131 34.242 98.6513 35.1581 98.9723 36.246C99.2052 37.0405 99.3348 37.8868 99.2708 38.7138L99.2504 38.9614C99.1713 39.8588 99.0141 40.8525 98.3494 41.4981C98.0083 41.831 97.5879 41.9523 97.1872 41.9138C97.4295 43.9821 97.5849 46.0622 97.7311 48.1349L97.7997 49.1256C98.1258 53.916 98.3709 58.7377 98.3068 63.536C98.2472 68.0202 97.3351 72.3728 94.5039 76.0137C91.9253 79.3292 88.2231 81.7732 84.0349 82.7023C81.7778 83.2039 79.4736 83.2394 77.1891 82.9198C76.0817 82.7645 74.967 82.5263 73.916 82.1505C72.7526 81.7333 71.9165 81.1193 71.1337 80.1991C70.7634 79.7626 70.9416 78.8336 71.6789 78.9208C72.7939 79.0522 73.8118 79.2105 74.8808 79.5308L75.0339 79.5777C76.0986 79.9091 77.2013 80.1562 78.3144 80.2612C80.5945 80.4757 82.9093 80.2597 85.0934 79.5881C88.6495 78.4933 91.7123 76.0537 93.6754 72.9882C96.0056 69.3547 96.269 65.23 96.2354 61.052C96.1993 56.4674 96.0458 51.8802 95.7952 47.3003L95.7526 46.5371C95.6201 44.1803 95.4922 41.8221 95.3796 39.4639C95.3446 38.7241 95.2913 37.9785 95.1952 37.2402C94.3166 36.7402 93.5292 36.0508 93.0159 35.2001C91.9849 35.6143 90.9005 35.9132 89.9028 36.1514C87.5918 36.7035 85.1925 36.8375 82.8403 36.4918C82.2058 36.7464 81.5587 36.9702 80.9017 37.1629C80.7241 37.2393 80.5465 37.3145 80.3691 37.3882C78.785 38.0465 77.1783 38.6043 75.5062 39.0126L75.0954 39.1121C74.2154 39.3228 73.2596 39.5304 72.3231 39.5955C72.1693 39.6532 72.0033 39.702 71.8219 39.7449C70.9692 39.9462 70.0842 40.0098 69.2102 39.9388C68.3587 39.8692 67.7434 39.0333 68.2124 38.2507C68.5551 37.6796 68.901 37.11 69.2497 36.5419C68.0359 37.0331 66.7825 37.4414 65.5184 37.7876C64.2422 38.1368 62.9476 38.4312 61.6514 38.7019C60.9585 38.8454 60.2626 38.9727 59.5712 39.1162C59.0762 39.2183 58.3162 39.2715 57.9125 39.5881C57.4664 39.9358 57.34 40.7465 57.1708 41.2466C56.9484 41.8961 56.7398 42.5485 56.5494 43.2083C56.1704 44.5251 55.8597 45.861 55.619 47.2103C55.3784 48.561 55.2168 49.9251 55.127 51.2936C55.0372 52.6606 55.0767 54.0365 54.9322 55.3976C54.8543 56.1195 54.0564 56.4909 53.4671 55.9864C53.3979 55.9272 53.3282 55.8674 53.2592 55.8069L53.1564 55.7156C52.6521 55.2718 52.1632 54.8013 51.7598 54.2717C51.6867 54.174 51.6166 54.072 51.5511 53.9684C51.5405 53.9684 51.5313 53.9654 51.5207 53.958L51.4088 53.8763C50.1771 52.9857 48.1193 51.8246 46.9182 53.3041C46.5355 53.7755 46.3395 54.3756 46.1769 54.9547L45.8916 55.9909C45.707 56.6674 45.5333 57.3477 45.4316 58.0399C45.2017 59.5903 45.3174 61.3775 46.4156 62.6202C46.8542 63.1173 47.4589 63.4724 48.1334 63.5656C48.5097 63.6159 48.8813 63.5538 49.2545 63.5079C49.6337 63.462 49.9991 63.536 50.3784 63.5005C50.9815 63.4428 51.245 64.1441 51.0196 64.5849C50.8978 64.8217 50.7545 65.0258 50.5917 65.1989C50.7225 65.3084 50.8475 65.4268 50.9678 65.551C51.3242 65.662 51.6439 65.9002 51.8831 66.2153C52.0766 66.4698 52.1769 66.7464 52.1938 67.0379C52.215 67.1104 52.2333 67.1843 52.2502 67.2598L52.5769 67.7749C52.6488 67.8879 52.7204 67.9995 52.7922 68.109C53.6238 69.3813 54.5468 70.4584 55.6937 71.4733C56.7978 72.4497 57.9963 73.3241 59.0336 74.3715L59.1558 74.4959C60.1228 75.4858 61.1421 76.6841 60.7637 78.1234C60.6662 78.4933 60.1345 78.7596 59.7874 78.5096C58.6711 77.7047 58.109 76.4294 57.1618 75.453C56.187 74.447 55.1072 73.543 54.1295 72.54C53.2049 71.5931 52.4754 70.5205 51.9258 69.3399C51.7063 69.5751 51.3867 69.7423 50.9435 69.8074C50.182 69.9184 49.4721 69.4849 49.1402 68.8443C48.9269 68.936 48.7092 69.0189 48.4898 69.084C47.3354 69.4272 46.609 68.18 47.0446 67.2583C47.2775 66.7642 47.5684 66.3351 47.9295 65.9742C46.8008 65.8233 45.6525 65.2566 44.9108 64.5494C43.0498 62.7726 42.794 60.1022 43.2128 57.7277C43.4351 56.4687 43.8188 55.1949 44.317 54.0128C44.4036 53.8071 44.4967 53.6 44.5986 53.3959C44.5422 53.3944 44.4843 53.3707 44.4478 53.3248C44.1112 52.878 43.7017 52.5126 43.4517 52.0126C43.2218 51.5539 42.9661 51.0894 42.7847 50.6115C42.4117 49.6336 42.2289 48.5299 42.1071 47.4958C41.8558 45.3787 41.9531 43.2749 42.2868 41.1711C42.8547 37.5879 44.2266 34.1588 46.2478 31.1499C46.1377 31.0937 46.0323 31.0259 45.934 30.9458L45.8855 30.9046L45.8066 30.8354C45.2298 30.3284 45.2796 29.3781 45.8066 28.8646L45.973 28.7026C46.1838 28.4992 46.3655 28.338 46.7059 28.1166C46.7562 28.0839 46.8075 28.0531 46.8594 28.0244C46.6812 27.7046 46.6194 27.3306 46.7435 26.918C47.1761 25.4805 49.3052 25.5314 50.6547 26.1583C52.1477 24.8639 53.8032 23.7402 55.5976 22.8304C59.8712 20.6645 64.7035 19.1539 69.4218 18.2308ZM47.3312 56.0899C48.1292 55.8369 49.1892 56.3681 49.9065 56.6876C50.8157 57.093 51.5894 57.6922 52.3387 58.3254C52.7119 58.642 52.7787 59.1598 52.686 59.6022C52.6767 59.6465 52.6677 59.6924 52.6569 59.7383C52.5579 60.2102 52.0157 60.5816 51.536 60.5682C50.5323 60.5416 50.0542 59.6998 49.486 58.9867C49.4192 59.1021 49.3354 59.2086 49.2317 59.2885L49.1616 59.3418C48.9259 59.5162 48.666 59.6556 48.3544 59.6421C48.1336 59.6317 47.9221 59.577 47.727 59.4779C47.2396 59.2279 47.025 58.6154 47.1574 58.1168C47.2396 57.8031 47.4285 57.5576 47.6752 57.3874L47.5832 57.3263C47.3864 57.1933 47.207 57.053 47.0671 56.8461L47.0355 56.7971H47.0477C46.8954 56.5426 46.9946 56.1965 47.3312 56.0899Z" fill="black"/>
<path fill-rule="evenodd" clip-rule="evenodd" d="M84.9199 70.9785C83.7979 71.2942 82.5937 71.3224 81.4501 70.9964C80.4128 70.7007 79.3477 70.0499 78.5843 69.1888C77.9062 68.4239 77.4669 67.4943 77.4842 66.502C77.4862 66.3886 77.5279 66.2941 77.592 66.2206C77.6611 66.1416 77.7576 66.0873 77.861 66.0638C77.9673 66.0395 78.0796 66.0481 78.1753 66.0903C78.262 66.1286 78.3362 66.1935 78.3826 66.2884C78.4999 66.4381 78.6168 66.5856 78.7341 66.729C79.6774 67.8605 80.591 68.7061 82.0095 69.0094C82.7791 69.174 83.5478 69.101 84.253 68.8499C85.008 68.5811 85.6905 68.1085 86.2253 67.5036C86.4669 67.2303 86.7523 67.1187 87.0313 67.1169C87.3475 67.1147 87.66 67.2575 87.8954 67.4856C88.1268 67.7098 88.2818 68.0145 88.2958 68.3332C88.3082 68.6129 88.2142 68.9052 87.9643 69.1659C87.1411 70.0246 86.0742 70.6537 84.9199 70.9785ZM84.8855 56.8065C86.0356 57.4856 87.788 59.0691 86.5507 60.7526C85.0944 62.237 82.9977 60.535 81.9644 59.7653C81.0064 59.1688 79.9299 60.703 80.8188 61.3996C88.2851 66.7693 91.315 56.9841 85.4672 56.0081C84.8234 55.9006 84.5842 56.5965 84.8855 56.8065ZM74.1274 53.8185C73.7577 53.5888 73.3229 53.51 72.841 53.723C72.4644 53.8894 71.8039 54.4439 71.3443 55.173C71.0298 55.6717 70.8068 56.2568 70.8532 56.8663C70.864 57.0078 70.8102 57.1122 70.7253 57.1893C70.6582 57.2503 70.5613 57.2951 70.4475 57.3091C70.3509 57.321 70.2428 57.3102 70.1549 57.2836C69.9876 57.2329 69.8991 57.1275 69.8657 57.0414C69.5439 56.2112 69.6826 55.2846 70.0433 54.4487C70.53 53.3206 71.4141 52.3757 71.9932 52.071C72.9843 51.5495 74.1536 51.5255 75.1461 52.0568C75.991 52.509 76.5192 53.239 77.0447 53.9832C77.1564 54.1414 77.2672 54.2984 77.3818 54.4527C77.6114 54.7618 77.6342 55.0684 77.5453 55.3313C77.4468 55.6225 77.1956 55.8683 76.8816 55.997C76.5913 56.1158 76.2543 56.1326 75.9562 56.0104C75.7043 55.9072 75.4732 55.7061 75.3269 55.3647C75.0806 54.7899 74.6702 54.1557 74.1274 53.8185V53.8185ZM92.9001 55.0974C92.6469 55.2255 92.4489 55.2642 92.1681 55.1824C92.0128 55.1371 91.8593 55.0503 91.7391 54.9336C91.62 54.8179 91.5341 54.674 91.5007 54.5144C91.4186 54.1205 91.1967 53.7518 90.8806 53.5115C90.6104 53.306 90.2693 53.1972 89.891 53.2586C89.4828 53.3248 89.0938 53.5791 88.826 53.879C88.7364 53.9793 88.6662 54.0933 88.5957 54.2064C88.4637 54.4181 88.3354 54.6149 88.1534 54.7703C88.0844 54.8294 87.9804 54.8704 87.8797 54.8704C87.8388 54.8704 87.7973 54.8639 87.7577 54.8519C87.3514 54.4558 87.2732 54.1553 87.2863 53.8572C87.3001 53.5446 87.4269 53.2281 87.6319 52.9328C88.1128 52.2402 89.0259 51.6722 89.6421 51.5436C90.4859 51.3674 91.3239 51.5789 91.9957 52.0367C92.6871 52.5078 93.1993 53.2392 93.359 54.0634C93.3974 54.2619 93.3811 54.4762 93.3033 54.6619C93.2272 54.8435 93.0947 54.9989 92.9001 55.0974ZM75.9881 46.4334C75.4817 46.9127 74.8824 46.9869 74.276 47.053C73.9391 47.09 73.6702 47.1199 73.4055 47.1779C72.6781 47.3374 71.9591 47.5776 71.3031 47.9236C70.6173 48.2853 69.87 48.7215 69.3324 49.2803C69.2045 49.4133 69.084 49.5528 68.9633 49.6926C68.8533 49.8202 68.7473 49.9429 68.6355 50.0613C68.5072 50.1972 68.3854 50.3397 68.2642 50.4818C68.1893 50.6018 68.1745 50.6312 68.1594 50.6619C68.1367 50.7081 68.1103 50.7597 68.0801 50.8151C68.0388 50.891 67.9904 50.974 67.9397 51.0493C67.8553 51.1869 67.8101 51.2248 67.771 51.2418C67.7061 51.2698 67.6446 51.2837 67.5849 51.2762C67.5289 51.2692 67.4762 51.243 67.4241 51.2003C67.1641 50.9869 67.0874 50.6367 67.0953 50.265C67.1072 49.7009 67.3214 49.0764 67.5188 48.6925C67.9779 47.8004 68.6146 46.873 69.3802 46.2073C70.2538 45.4473 71.2095 44.8719 72.3073 44.4755C72.9895 44.229 73.7793 44.0028 74.5226 44.0313C75.0575 44.0519 75.5682 44.2064 75.99 44.5922C76.249 44.829 76.3733 45.1658 76.3733 45.5024C76.3733 45.8458 76.2442 46.1911 75.9881 46.4334ZM93.9302 50.8222C93.898 50.8735 93.8534 50.9088 93.8038 50.9301C93.7518 50.9523 93.6938 50.9587 93.6381 50.9496C93.5826 50.9405 93.5299 50.9161 93.4881 50.8788C93.448 50.843 93.4175 50.7956 93.4038 50.7375C93.0676 49.303 92.4148 48.2358 91.0215 47.5476C90.3361 47.2091 89.5479 46.994 88.8018 46.8225C88.585 46.7726 88.3559 46.7403 88.1251 46.7076C87.402 46.605 86.6737 46.4876 86.2023 45.9198C85.9183 45.5778 85.7991 45.1404 85.8665 44.7404C85.9299 44.3638 86.1565 44.0184 86.5684 43.8114C87.5937 43.2965 88.8679 43.8018 89.9033 44.2323C89.9802 44.2642 90.0556 44.2956 90.1293 44.3258C91.1419 44.741 92.0654 45.2891 92.8246 46.0728C93.4269 46.6946 93.985 47.6138 94.2098 48.5595C94.3968 49.3462 94.3528 50.1493 93.9302 50.8222Z" fill="black"/>
<path fill-rule="evenodd" clip-rule="evenodd" d="M88.1108 73.3678C86.6925 72.1403 85.1026 69.6726 83.065 71.6252C82.5611 72.1769 82.357 73.4137 81.5864 73.6563C80.5629 73.9788 79.5486 72.927 79.1998 72.1192C77.7728 67.631 83.6719 66.3999 87.0326 67.125C88.6743 67.7799 89.8836 70.4163 89.9567 71.7922C90.0039 72.7169 89.1982 74.0765 88.1108 73.3678M98.8113 66.45C98.7975 66.3904 98.7781 66.3365 98.7548 66.2875C98.1275 66.0572 97.6312 66.2921 97.3245 66.7309C97.3345 66.84 97.368 66.9505 97.3892 67.0586C97.1525 67.543 96.939 68.1423 96.6182 68.5609C96.5549 68.5656 96.4892 68.5591 96.4262 68.5413C91.109 69.0807 93.7049 63.6764 88.3119 62.3341C84.143 61.666 76.6082 62.4313 74.6416 66.6464C73.0905 73.3791 65.2041 68.6878 62.6147 65.1864C59.8518 61.9998 58.0654 58.1059 56.3429 54.3273C55.9789 53.5277 54.8429 54.0995 54.9664 54.8668C53.3743 57.9693 53.4273 61.6961 53.033 65.0949C52.3623 71.876 51.7087 81.3856 58.1947 85.5262C66.6453 94.8048 87.7475 98.0792 97.4943 89.5537C100.868 82.5071 100.452 73.9104 98.8113 66.45" fill="black"/>
<path fill-rule="evenodd" clip-rule="evenodd" d="M93.2606 45.8041C96.8353 45.8041 98.8753 46.5509 99.6229 46.6091L99.6454 46.6106C99.9563 46.63 100.235 46.6552 100.528 46.7651C101.604 47.1677 101.779 48.2641 101.151 48.955C101.107 50.3847 101.301 52.0552 100.969 53.4895C100.559 59.5362 97.6316 60.5566 95.9677 60.929C95.1323 61.1161 94.1422 61.1905 93.2548 60.9931C91.741 60.9382 90.2444 60.4779 88.9639 59.6763C87.1806 58.559 85.8561 56.8417 85.4263 54.8036C85.2226 53.8322 85.1274 52.821 85.2382 51.8335L85.2547 51.6975C84.675 51.4282 84.0033 51.3772 83.3109 51.3534C82.9801 51.342 82.6541 51.3317 82.3374 51.3454C82.0278 51.379 81.7219 51.4237 81.4151 51.4846C81.0801 51.5828 80.7637 51.7449 80.4715 52.0016L80.4514 52.3762C80.3965 53.3121 80.27 54.2509 80.0749 55.1691C79.7868 56.5239 79.3235 57.8178 78.3373 58.7788C78.0035 59.2631 77.5905 59.6954 77.089 60.0698C75.2675 61.4322 72.7927 61.9324 70.5213 61.744C65.9102 61.3618 63.2449 57.8059 62.6306 56.2861L62.5939 56.194C62.1502 55.0641 61.7966 53.598 60.3945 53.3552L60.0963 53.3032C59.4565 53.1865 58.8661 53.0241 58.491 52.4177C58.3265 52.153 58.2419 51.8569 58.2212 51.555C58.0023 51.5714 57.7837 51.587 57.5659 51.6021C55.8285 51.9591 45.407 52.2617 44.5752 52.2617C44.5752 52.2617 42.9762 52.9155 42.3011 52.4089C41.8332 52.0567 41.6793 51.5873 41.9368 51.0554C42.3255 50.2552 44.1186 49.7739 44.9148 49.6215C44.9148 49.6215 57.7634 49.7252 58.6882 49.5549C59.2604 48.9817 60.2839 49.0602 61.1391 48.9696C61.8471 48.4792 62.8375 48.1507 63.6198 47.9309C63.7793 47.8722 63.9372 47.8154 64.0907 47.762C65.5249 47.2658 67.0157 47.003 68.5292 46.8619C70.09 46.7178 71.6553 46.783 73.2069 46.9895C73.8608 47.0756 74.5086 47.187 75.1518 47.3328C76.3035 47.4803 77.4485 47.7232 78.6006 48.0114L78.8312 48.0696C80.0444 48.3786 81.2912 48.6459 82.5471 48.4364C83.5696 48.267 84.5529 47.8847 85.4956 47.4714L85.6183 47.4173C87.6912 46.4979 90.9284 45.8041 93.2606 45.8041ZM75.027 49.1658C74.2622 49.0024 73.9356 50.148 74.7028 50.3118C75.2462 50.4278 75.7067 50.694 76.0178 51.1449L76.0505 51.1939C76.468 51.8393 77.5237 51.2436 77.1033 50.5941C76.6303 49.8632 75.8954 49.3512 75.027 49.1658ZM97.4282 48.4555C97.1586 48.271 96.7506 48.408 96.594 48.6687C96.4217 48.9558 96.5347 49.2755 96.7872 49.4633L96.8129 49.4816C97.0445 49.6402 97.2701 49.9245 97.2984 50.2157L97.3009 50.2522C97.3313 51.0144 98.5508 51.0183 98.5203 50.2522C98.4906 49.5027 98.0438 48.8765 97.4282 48.4555Z" fill="black"/>
</g>
<rect x="1" y="1" width="138" height="138" rx="69" stroke="#18191F" stroke-width="2"/>
<defs>
<clipPath id="clip0">
</clipPath>
</defs>
</svg>
